<mxfile host="65bd71144e">
    <diagram id="g5h_yifZXlT3VqVMKrtx" name="ページ1">
        <mxGraphModel dx="1557" dy="615" grid="1" gridSize="10" guides="1" tooltips="1" connect="1" arrows="1" fold="1" page="1" pageScale="1" pageWidth="827" pageHeight="1169" background="#ffffff" math="0" shadow="0">
            <root>
                <mxCell id="0"/>
                <mxCell id="1" parent="0"/>
                <mxCell id="2" value="" style="rounded=0;whiteSpace=wrap;html=1;movable=1;resizable=1;rotatable=1;deletable=1;editable=1;locked=0;connectable=1;" parent="1" vertex="1">
                    <mxGeometry x="-810" y="20" width="770" height="390" as="geometry"/>
                </mxCell>
                <mxCell id="3" value="" style="rounded=0;whiteSpace=wrap;html=1;movable=1;resizable=1;rotatable=1;deletable=1;editable=1;locked=0;connectable=1;" parent="1" vertex="1">
                    <mxGeometry x="-540" y="60" width="290" height="320" as="geometry"/>
                </mxCell>
                <mxCell id="8" value="" style="endArrow=none;html=1;rounded=0;fillColor=#dae8fc;strokeColor=#6C8EBF;strokeWidth=3;endFill=0;shape=link;targetPerimeterSpacing=0;width=14.838709677419352;" parent="1" edge="1">
                    <mxGeometry width="50" height="50" relative="1" as="geometry">
                        <mxPoint x="10" y="20" as="sourcePoint"/>
                        <mxPoint x="10" y="410" as="targetPoint"/>
                    </mxGeometry>
                </mxCell>
                <mxCell id="9" value="CAN-BUS" style="edgeLabel;html=1;align=center;verticalAlign=middle;resizable=0;points=[];fontSize=32;fontFamily=Helvetica;fontColor=default;horizontal=0;" parent="8" vertex="1" connectable="0">
                    <mxGeometry x="0.048" y="6" relative="1" as="geometry">
                        <mxPoint x="24" y="7" as="offset"/>
                    </mxGeometry>
                </mxCell>
                <mxCell id="17" value="CAN通信実証モジュール" style="text;html=1;strokeColor=none;fillColor=none;align=left;verticalAlign=middle;whiteSpace=wrap;rounded=0;fontSize=20;" parent="1" vertex="1">
                    <mxGeometry x="-800" y="40" width="230" height="60" as="geometry"/>
                </mxCell>
                <mxCell id="36" value="" style="endArrow=none;html=1;rounded=0;strokeWidth=3;endFill=0;" parent="1" edge="1">
                    <mxGeometry width="50" height="50" relative="1" as="geometry">
                        <mxPoint x="-420" y="600" as="sourcePoint"/>
                        <mxPoint x="-420" y="600" as="targetPoint"/>
                        <Array as="points">
                            <mxPoint x="-420" y="600"/>
                        </Array>
                    </mxGeometry>
                </mxCell>
                <mxCell id="43" style="edgeStyle=none;html=1;strokeWidth=3;fillColor=#dae8fc;strokeColor=#6c8ebf;" parent="1" source="38" edge="1">
                    <mxGeometry relative="1" as="geometry">
                        <mxPoint y="270" as="targetPoint"/>
                    </mxGeometry>
                </mxCell>
                <mxCell id="45" value="&lt;ul&gt;&lt;li&gt;温度&lt;/li&gt;&lt;/ul&gt;" style="edgeLabel;html=1;align=center;verticalAlign=middle;resizable=0;points=[];" parent="43" vertex="1" connectable="0">
                    <mxGeometry x="-0.2359" relative="1" as="geometry">
                        <mxPoint x="-27" y="30" as="offset"/>
                    </mxGeometry>
                </mxCell>
                <mxCell id="44" style="edgeStyle=none;html=1;strokeWidth=3;" parent="1" source="38" edge="1">
                    <mxGeometry relative="1" as="geometry">
                        <mxPoint x="-250" y="270" as="targetPoint"/>
                    </mxGeometry>
                </mxCell>
                <mxCell id="38" value="MAX31855" style="rounded=0;whiteSpace=wrap;html=1;" parent="1" vertex="1">
                    <mxGeometry x="-390" y="250" width="95" height="40" as="geometry"/>
                </mxCell>
                <mxCell id="46" value="ADC" style="whiteSpace=wrap;html=1;" parent="1" vertex="1">
                    <mxGeometry x="-450" y="250" width="60" height="40" as="geometry"/>
                </mxCell>
                <mxCell id="49" style="edgeStyle=none;html=1;entryX=0;entryY=0.5;entryDx=0;entryDy=0;strokeWidth=3;exitX=0.5;exitY=1;exitDx=0;exitDy=0;rounded=0;fillColor=none;" parent="1" source="47" target="46" edge="1">
                    <mxGeometry relative="1" as="geometry">
                        <Array as="points">
                            <mxPoint x="-680" y="270"/>
                            <mxPoint x="-460" y="270"/>
                        </Array>
                    </mxGeometry>
                </mxCell>
                <mxCell id="50" style="edgeStyle=none;rounded=0;html=1;strokeColor=#ae4132;strokeWidth=3;fillColor=#fad9d5;" parent="1" source="47" edge="1">
                    <mxGeometry relative="1" as="geometry">
                        <mxPoint x="-540" y="270" as="targetPoint"/>
                        <Array as="points">
                            <mxPoint x="-680" y="270"/>
                        </Array>
                    </mxGeometry>
                </mxCell>
                <mxCell id="52" value="Analog" style="edgeLabel;html=1;align=center;verticalAlign=middle;resizable=0;points=[];" parent="50" vertex="1" connectable="0">
                    <mxGeometry x="0.42" y="-4" relative="1" as="geometry">
                        <mxPoint x="-4" y="-14" as="offset"/>
                    </mxGeometry>
                </mxCell>
                <mxCell id="53" value="&lt;ul&gt;&lt;li&gt;温度&lt;/li&gt;&lt;/ul&gt;" style="edgeLabel;html=1;align=center;verticalAlign=middle;resizable=0;points=[];" parent="50" vertex="1" connectable="0">
                    <mxGeometry x="-0.24" y="-3" relative="1" as="geometry">
                        <mxPoint x="-11" y="27" as="offset"/>
                    </mxGeometry>
                </mxCell>
                <mxCell id="47" value="熱電対" style="whiteSpace=wrap;html=1;" parent="1" vertex="1">
                    <mxGeometry x="-720" y="210" width="80" height="40" as="geometry"/>
                </mxCell>
            </root>
        </mxGraphModel>
    </diagram>
</mxfile>